<?xml version="1.0" encoding="UTF-8"?>
<svg id="Layer_1" data-name="Layer 1" xmlns="http://www.w3.org/2000/svg" viewBox="0 0 245.92 64.56">
  <defs>
    <style>
      .cls-1 {
        font-family: TrajanPro-Regular, 'Trajan Pro';
        font-size: 9.97px;
      }

      .cls-1, .cls-2 {
        fill: #fff;
      }

      .cls-3 {
        letter-spacing: .4em;
      }

      .cls-4 {
        letter-spacing: .38em;
      }
    </style>
  </defs>
  <g>
    <polygon class="cls-2" points="162.51 30.76 158.65 39.94 166.35 39.94 162.51 30.76"/>
    <path class="cls-2" d="M160.41,32.12c1.12-2.53,1.88-4.36,2.29-5.5,0,0,.76-.17,1.04,0s2.07,4.82,2.07,4.82l2.9,6.73,2.77,6.43c.52,1.22,.87,1.96,1.04,2.21,.17,.25,.37,.43,.6,.54,.22,.11,.73,.18,1.51,.22v.96c-1.32-.07-2.59-.11-3.79-.11-1.12,0-2.61,.04-4.48,.11v-.96l1.51-.09c.54-.04,.86-.1,.96-.17,.15-.11,.23-.25,.23-.43,0-.18-.15-.66-.46-1.44l-1.68-4.25h-8.84l-1.04,2.46c-.15,.35-.28,.67-.39,.96,.39,1.02,.88,1.99,1.47,2.89l.52,.06v.69c2.85,3.87,7.42,6.39,12.58,6.39,1.8,0,3.56-.3,5.25-.91l.34-.12,.28,.23c2.59,2.15,5.87,3.33,9.24,3.33,3.69,0,7.2-1.39,9.89-3.91l.45-.42,.44,.42c3.03,2.94,7.02,4.55,11.22,4.55,.16,0,.32,0,.48,0,5.01-.15,9.58-2.55,12.55-6.6l.19-.27h.5c9.45,0,17.13-7.68,17.13-17.12s-7.68-17.13-17.13-17.13c-2.56,0-5.02,.55-7.32,1.64l-.34,.16-.31-.22c-2.37-1.72-5.16-2.63-8.09-2.63-1.56,0-3.1,.26-4.57,.78l-.49,.17-.27-.44c-3.66-5.91-9.99-9.44-16.93-9.44-10.23,0-18.94,7.98-19.83,18.16l-.03,.34-.3,.17c-4.93,2.77-7.99,7.99-7.99,13.64,0,1.1,.12,2.18,.34,3.21,.09-.2,.18-.39,.27-.59l4.2-9.52Zm24.18-7.57h25.62c1.68,0,3.04,1.36,3.04,3.04h0c0,1.68-1.36,3.04-3.04,3.04h-25.62c-1.68,0-3.04-1.36-3.04-3.04s1.36-3.04,3.04-3.04Zm0,7.63h25.62c1.68,0,3.04,1.36,3.04,3.04h0c0,1.68-1.36,3.04-3.04,3.04h-25.62c-1.68,0-3.04-1.36-3.04-3.04s1.36-3.04,3.04-3.04Zm0,7.63h25.62c1.68,0,3.04,1.36,3.04,3.04h0c0,1.68-1.36,3.04-3.04,3.04h-25.62c-1.68,0-3.04-1.36-3.04-3.04s1.36-3.04,3.04-3.04Z"/>
    <path class="cls-2" d="M222.07,9.98c-2.35,0-4.67,.34-6.9,1.01l-.12,.04-.11-.05c-2.76-1.34-5.85-2.05-8.93-2.05-.69,0-1.39,.04-2.08,.11l-.16,.02-.11-.12c-5.09-5.76-12.16-8.93-19.9-8.93-12.5,0-23.46,8.89-26.05,21.14l-.02,.12-.09,.07c-5.53,4.27-8.7,10.72-8.7,17.69,0,12.33,10.03,22.35,22.35,22.35,1.41,0,2.82-.13,4.2-.4l.12-.02,.1,.06c3.24,1.89,6.93,2.89,10.69,2.89,3.51,0,6.99-.88,10.06-2.54l.16-.09,.16,.09c3.5,2.08,7.52,3.18,11.63,3.18,.22,0,.45,0,.68,0,6.01-.18,11.61-2.64,15.75-6.94l.08-.08h.11c11.95-1.46,20.96-11.65,20.96-23.69,0-13.15-10.7-23.85-23.85-23.85Zm1.68,45.08h-.13s-.09,.11-.09,.11c-3.74,4.23-8.92,6.65-14.59,6.82-.2,0-.4,0-.6,0-4.16,0-8.15-1.25-11.55-3.61l-.18-.12-.18,.12c-3.01,1.94-6.49,2.97-10.09,2.97s-7.17-1.05-10.21-3.05l-.12-.08-.13,.03c-1.52,.37-3.08,.55-4.65,.55-7.5,0-14.05-4.2-17.4-10.37-.85,.02-1.64,.05-2.35,.09v-.96l.46-.02c.69-.02,1.14-.09,1.36-.21-1.18-2.53-1.86-5.35-1.86-8.32,0-6.45,3.16-12.51,8.45-16.22l.11-.08,.02-.13c1.95-11.42,12.15-20.03,23.73-20.03,7.4,0,14.26,3.31,18.84,9.08l.12,.15,.19-.03c1.02-.18,2.07-.27,3.11-.27,3.05,0,6.05,.78,8.69,2.25l.13,.07,.14-.05c2.27-.81,4.66-1.22,7.11-1.22,11.74,0,21.29,9.55,21.29,21.29,0,11.04-8.61,20.36-19.61,21.23Z"/>
    <path class="cls-2" d="M208.26,44.66c1,0,1.82-.81,1.82-1.82s-.81-1.82-1.82-1.82-1.82,.81-1.82,1.82,.81,1.82,1.82,1.82Zm0-3.04c.67,0,1.22,.55,1.22,1.22s-.55,1.22-1.22,1.22-1.22-.55-1.22-1.22,.55-1.22,1.22-1.22Z"/>
    <path class="cls-2" d="M185.36,29.27c.17,0,.32-.15,.32-.32v-2.73c0-.18-.14-.32-.32-.32h0c-.17,0-.32,.15-.32,.32v2.73c0,.18,.14,.32,.32,.32Z"/>
    <path class="cls-2" d="M186.85,29.27c.17,0,.32-.15,.32-.32v-2.73c0-.18-.14-.32-.32-.32h0c-.17,0-.32,.15-.32,.32v2.73c0,.18,.14,.32,.32,.32Z"/>
    <path class="cls-2" d="M188.37,29.27c.17,0,.32-.15,.32-.32v-2.73c0-.18-.14-.32-.32-.32s-.32,.15-.32,.32v2.73c0,.18,.14,.32,.32,.32Z"/>
    <path class="cls-2" d="M185.34,36.9c.17,0,.32-.15,.32-.32v-2.73c0-.18-.14-.32-.32-.32s-.32,.15-.32,.32v2.73c0,.18,.14,.32,.32,.32Z"/>
    <path class="cls-2" d="M186.83,36.9c.17,0,.32-.15,.32-.32v-2.73c0-.18-.14-.32-.32-.32h0c-.17,0-.32,.15-.32,.32v2.73c0,.18,.14,.32,.32,.32Z"/>
    <path class="cls-2" d="M188.35,36.9c.17,0,.32-.15,.32-.32v-2.73c0-.18-.14-.32-.32-.32s-.32,.15-.32,.32v2.73c0,.18,.14,.32,.32,.32Z"/>
    <path class="cls-2" d="M185.33,44.53c.17,0,.32-.15,.32-.32v-2.73c0-.18-.14-.32-.32-.32s-.32,.15-.32,.32v2.73c0,.18,.14,.32,.32,.32Z"/>
    <path class="cls-2" d="M186.81,44.53c.17,0,.32-.15,.32-.32v-2.73c0-.18-.14-.32-.32-.32h0c-.17,0-.32,.15-.32,.32v2.73c0,.18,.14,.32,.32,.32Z"/>
    <path class="cls-2" d="M188.33,44.53c.17,0,.32-.15,.32-.32v-2.73c0-.18-.14-.32-.32-.32h0c-.17,0-.32,.15-.32,.32v2.73c0,.18,.14,.32,.32,.32Z"/>
    <path class="cls-2" d="M208.26,37.03c1,0,1.82-.81,1.82-1.82s-.81-1.82-1.82-1.82-1.82,.81-1.82,1.82,.81,1.82,1.82,1.82Zm0-3.04c.67,0,1.22,.55,1.22,1.22s-.55,1.22-1.22,1.22-1.22-.55-1.22-1.22,.55-1.22,1.22-1.22Z"/>
    <path class="cls-2" d="M208.26,29.41c1,0,1.82-.81,1.82-1.82s-.81-1.82-1.82-1.82-1.82,.81-1.82,1.82,.81,1.82,1.82,1.82Zm0-3.04c.67,0,1.22,.55,1.22,1.22s-.55,1.22-1.22,1.22-1.22-.55-1.22-1.22,.55-1.22,1.22-1.22Z"/>
    <path class="cls-2" d="M0,26.78c.12,1.38,.18,2.43,.18,3.16l-.03,1.82h.96l.21-2.05c.08-.79,.25-1.25,.5-1.37s1.64-.18,4.15-.18h1.56c.07,1.44,.11,3.02,.11,4.74v8.73c0,1.88-.05,3.42-.15,4.62-.05,.52-.18,.87-.38,1.05-.2,.18-.64,.27-1.31,.27h-1.28v.96c1.77-.07,3.29-.11,4.55-.11s2.78,.04,4.58,.11v-.96h-1.15c-1,0-1.58-.17-1.74-.5s-.25-2.12-.25-5.36v-8.71c0-1.69,.06-3.3,.17-4.83h1.19c1.43,0,2.7,.04,3.82,.12,.39,.03,.64,.11,.75,.24,.11,.13,.2,.54,.26,1.23l.15,2h.96c.03-1.6,.14-3.26,.34-4.98l-8.45,.11c-.97,0-4.2-.04-9.71-.11Z"/>
    <path class="cls-2" d="M34.88,26.78v.96h.79c1.08,0,1.74,.19,1.98,.57,.24,.38,.36,1.91,.36,4.58v5.76c0,2.58-.19,4.33-.57,5.25s-.97,1.6-1.79,2.04c-1.18,.63-2.63,.95-4.36,.95s-3.01-.3-4-.89c-1-.59-1.62-1.31-1.86-2.17-.24-.86-.36-2.38-.36-4.57v-5.99c0-2.96,.1-4.62,.29-4.98,.19-.37,.77-.55,1.73-.55h1.12v-.96c-1.94,.07-3.4,.11-4.4,.11-.95,0-2.47-.04-4.55-.11v.96h1.08c.91,0,1.44,.17,1.61,.52,.17,.35,.25,1.96,.25,4.83v4.66l-.03,2.9c0,1.95,.13,3.32,.4,4.13,.27,.81,.71,1.5,1.31,2.06s1.51,1.03,2.71,1.41c1.2,.38,2.6,.57,4.2,.57s2.9-.21,4.04-.64,2.06-1.01,2.75-1.74c.69-.73,1.16-1.56,1.42-2.47,.26-.91,.39-2.68,.39-5.3v-5.73c0-2.61,.12-4.13,.35-4.56,.23-.43,.75-.65,1.56-.65h1.04v-.96c-1.38,.07-2.53,.11-3.46,.11-.57,0-1.91-.04-4.03-.11Z"/>
    <path class="cls-2" d="M43.73,26.78v.96h1.02c1.02,0,1.62,.2,1.82,.59,.19,.39,.29,2.27,.29,5.63v13.17c0,2.42-.16,3.9-.49,4.46-.33,.55-.9,.83-1.71,.83-.57,0-1.13-.17-1.68-.52l-.32,.17,.05,1.3c0,.29-.02,.65-.05,1.1,.36,.05,.63,.08,.82,.08,1.08,0,2.21-.53,3.39-1.59,1.18-1.06,2-2.34,2.43-3.85,.29-.95,.43-2.51,.43-4.69v-13.16c0-1.47,.03-2.34,.09-2.61,.06-.27,.18-.46,.35-.57,.17-.11,.67-.2,1.5-.27l1.01-.06v-.96c-1.3,.07-2.89,.11-4.77,.11-1.69,0-3.09-.04-4.19-.11Z"/>
    <path class="cls-2" d="M69.65,26.78v.96h.79c1.08,0,1.74,.19,1.98,.57,.24,.38,.36,1.91,.36,4.58v5.76c0,2.58-.19,4.33-.57,5.25s-.97,1.6-1.79,2.04c-1.18,.63-2.63,.95-4.36,.95s-3.01-.3-4-.89c-1-.59-1.62-1.31-1.86-2.17-.24-.86-.36-2.38-.36-4.57v-5.99c0-2.96,.1-4.62,.29-4.98,.19-.37,.77-.55,1.73-.55h1.12v-.96c-1.94,.07-3.4,.11-4.4,.11-.95,0-2.47-.04-4.55-.11v.96h1.09c.91,0,1.44,.17,1.61,.52,.17,.35,.25,1.96,.25,4.83v4.66l-.03,2.9c0,1.95,.13,3.32,.41,4.13,.27,.81,.71,1.5,1.31,2.06,.61,.56,1.51,1.03,2.71,1.41,1.2,.38,2.6,.57,4.2,.57s2.9-.21,4.04-.64c1.15-.43,2.06-1.01,2.75-1.74,.69-.73,1.16-1.56,1.42-2.47,.26-.91,.39-2.68,.39-5.3v-5.73c0-2.61,.12-4.13,.35-4.56,.23-.43,.75-.65,1.56-.65h1.04v-.96c-1.38,.07-2.53,.11-3.46,.11-.57,0-1.92-.04-4.03-.11Z"/>
    <path class="cls-2" d="M99.17,37.06c-.74-.34-2.16-.61-4.26-.81-2.1-.2-3.47-.43-4.12-.69-.65-.26-1.16-.68-1.54-1.27s-.57-1.28-.57-2.1c0-1.29,.47-2.35,1.4-3.17s2.21-1.24,3.84-1.24c1,0,1.95,.16,2.85,.48,.9,.32,1.46,.62,1.67,.91s.32,.83,.32,1.62v1.22h1.05c.02-1.75,.17-3.16,.46-4.22-1.03-.45-2.06-.78-3.08-1-1.02-.22-2.05-.33-3.07-.33-2.54,0-4.52,.63-5.96,1.9-1.44,1.26-2.15,2.89-2.15,4.88,0,1.17,.23,2.15,.7,2.94,.47,.79,1.12,1.37,1.94,1.74,.83,.37,2.39,.64,4.69,.83,1.73,.14,2.92,.35,3.56,.63,.64,.27,1.14,.7,1.5,1.26,.36,.57,.54,1.26,.54,2.07,0,1.4-.53,2.55-1.57,3.46-1.05,.91-2.54,1.36-4.46,1.36-.9,0-1.73-.1-2.51-.31-.78-.21-1.44-.51-2-.91-.38-.26-.62-.51-.72-.75-.1-.23-.15-.85-.15-1.83v-.76h-1.04c0,1.92-.08,3.48-.26,4.71,1.01,.39,2.01,.68,3,.88,.99,.2,1.98,.3,2.96,.3,2.85,0,5.14-.74,6.85-2.22,1.71-1.48,2.57-3.24,2.57-5.29,0-1.02-.22-1.9-.67-2.65s-1.03-1.28-1.77-1.62Z"/>
    <path class="cls-2" d="M119.08,43.26c-.27,1.34-.53,2.47-.78,3.36-.56,.2-1.09,.34-1.59,.4-.78,.1-1.74,.15-2.88,.15-1.7,0-3.3-.06-4.79-.17-.03-.62-.05-1.61-.05-2.96v-2.16s-.01-3.75-.01-3.75c.92-.07,1.8-.11,2.66-.11,2.31,0,3.66,.11,4.04,.33s.57,.82,.57,1.8v.89h1.04c-.07-1.31-.11-2.46-.11-3.42,0-.92,.04-2.15,.11-3.68h-1.04v.99c0,.88-.16,1.4-.48,1.57-.32,.17-1.69,.25-4.12,.25-.77,0-1.67-.04-2.67-.11v-3.1l.03-2.35c.03-.96,.04-1.91,.03-2.87,1.53-.12,2.99-.18,4.39-.18,1.75,0,3.23,.22,4.43,.67,.11,.74,.17,1.68,.17,2.8h1.04c.04-1.94,.25-3.51,.64-4.72-.97-.08-1.93-.12-2.87-.11l-2.78,.02-5.87,.09c-.47,0-1.16-.02-2.06-.05l-1.62-.05h-1.65v.96l1.18,.12c.73,.07,1.17,.15,1.31,.25,.14,.09,.25,.22,.33,.39s.15,.69,.21,1.57c.07,.88,.1,2,.1,3.38v8.39c0,2.19-.04,3.61-.11,4.25-.08,.64-.23,1.05-.46,1.22-.23,.17-.79,.26-1.67,.26h-.47v.96c1.98-.07,3.56-.11,4.75-.11s3.19,.04,5.84,.11l2.4,.05c1.13,0,2.28-.05,3.45-.15l-.03-.69c0-.75,.14-2.24,.41-4.48h-1.01Z"/>
    <path class="cls-2" d="M121.68,26.78c.12,1.38,.18,2.43,.18,3.16l-.03,1.82h.96l.21-2.05c.08-.79,.25-1.25,.5-1.37,.25-.12,1.64-.18,4.15-.18h1.55c.07,1.44,.11,3.02,.11,4.74v8.73c0,1.88-.05,3.42-.15,4.62-.05,.52-.18,.87-.38,1.05-.2,.18-.64,.27-1.31,.27h-1.28v.96c1.77-.07,3.29-.11,4.55-.11s2.78,.04,4.59,.11v-.96h-1.15c-1,0-1.58-.17-1.74-.5-.16-.33-.25-2.12-.25-5.36v-8.71c0-1.69,.06-3.3,.17-4.83h1.19c1.43,0,2.7,.04,3.82,.12,.39,.03,.64,.11,.75,.24,.11,.13,.2,.54,.26,1.23l.15,2h.96c.03-1.6,.14-3.26,.34-4.98l-8.45,.11c-.97,0-4.2-.04-9.71-.11Z"/>
    <path class="cls-2" d="M147.36,46.97c-.17-.4-.26-2.58-.26-6.55v-5.27c0-2.79,.03-4.73,.08-5.82,.03-.7,.14-1.14,.32-1.31,.18-.17,.64-.26,1.37-.26h1.18v-.96c-1.12,.07-2.37,.11-3.75,.11-1.65,0-3.33-.04-5.02-.11v.96h1.24c.82,0,1.3,.21,1.47,.63s.24,2.66,.24,6.74v5.18c0,3.93-.09,6.13-.28,6.59-.19,.46-.76,.69-1.7,.69h-.96v.96c1.39-.07,2.94-.11,4.67-.11,1.48,0,2.85,.04,4.1,.11v-.96h-1.01c-.94,0-1.5-.2-1.67-.6Z"/>
    <path class="cls-2" d="M158.65,48.53v-.28c-.18-.24-.36-.49-.52-.75l-.94-.11c-.52-.06-.84-.14-.97-.24-.13-.1-.19-.27-.19-.5,0-.29,.21-.97,.63-2.04-.3-.77-.55-1.56-.72-2.38-.66,1.47-1.31,2.87-1.95,4.16-.23,.5-.46,.81-.67,.94,0,0-.02,0-.02,.01,.17,.37,.34,.74,.53,1.1,.49,0,.99-.02,1.52-.02,1.22,0,2.32,.04,3.3,.11Z"/>
  </g>
  <text class="cls-1" transform="translate(93.82 57.83)"><tspan class="cls-3" x="0" y="0">C</tspan><tspan class="cls-4" x="12.01" y="0">l</tspan><tspan class="cls-3" x="21.11" y="0">oud</tspan></text>
</svg>