<?xml version="1.0" encoding="UTF-8"?>
<svg id="Layer_1" data-name="Layer 1" xmlns="http://www.w3.org/2000/svg" xmlns:xlink="http://www.w3.org/1999/xlink" viewBox="0 0 188.95 96.35">
  <defs>
    <style>
      .cls-1 {
        fill: url(#linear-gradient-2);
      }

      .cls-2, .cls-3 {
        fill: #fff;
      }

      .cls-4 {
        letter-spacing: .4em;
      }

      .cls-5 {
        fill: url(#linear-gradient-6);
      }

      .cls-6 {
        fill: url(#linear-gradient-11);
      }

      .cls-7 {
        fill: url(#linear-gradient-10);
      }

      .cls-3 {
        font-family: TrajanPro-Regular, 'Trajan Pro';
        font-size: 10.52px;
      }

      .cls-8 {
        fill: url(#linear-gradient-5);
      }

      .cls-9 {
        fill: url(#linear-gradient-7);
      }

      .cls-10 {
        fill: url(#linear-gradient-9);
      }

      .cls-11 {
        fill: url(#linear-gradient-3);
      }

      .cls-12 {
        letter-spacing: .38em;
      }

      .cls-13 {
        fill: url(#linear-gradient);
      }

      .cls-14 {
        fill: url(#linear-gradient-4);
      }

      .cls-15 {
        fill: url(#linear-gradient-8);
      }

      .cls-16 {
        fill: url(#linear-gradient-12);
      }

      .cls-17 {
        fill: url(#linear-gradient-13);
      }
    </style>
    <linearGradient id="linear-gradient" x1="115.03" y1="16.73" x2="101.97" y2="25.43" gradientUnits="userSpaceOnUse">
      <stop offset="0" stop-color="#84cdb4"/>
      <stop offset="1" stop-color="#35a0da"/>
    </linearGradient>
    <linearGradient id="linear-gradient-2" x1="118.4" y1="20.1" x2="105.35" y2="28.81" gradientUnits="userSpaceOnUse">
      <stop offset="0" stop-color="#40b86e"/>
      <stop offset="1" stop-color="#056379"/>
    </linearGradient>
    <linearGradient id="linear-gradient-3" x1="121.78" y1="23.48" x2="108.73" y2="32.18" gradientUnits="userSpaceOnUse">
      <stop offset="0" stop-color="#0585b5"/>
      <stop offset="1" stop-color="#1b4583"/>
    </linearGradient>
    <linearGradient id="linear-gradient-4" x1="73.96" y1="18.37" x2="63.81" y2="31.14" xlink:href="#linear-gradient-3"/>
    <linearGradient id="linear-gradient-5" x1="62.97" y1="31.09" x2="53.69" y2="45.88" xlink:href="#linear-gradient-3"/>
    <linearGradient id="linear-gradient-6" x1="104.27" y1="7.81" x2="76.05" y2="20.49" xlink:href="#linear-gradient-3"/>
    <linearGradient id="linear-gradient-7" x1="70.58" y1="14.99" x2="60.43" y2="27.76" xlink:href="#linear-gradient-2"/>
    <linearGradient id="linear-gradient-8" x1="59.6" y1="27.71" x2="50.31" y2="42.5" xlink:href="#linear-gradient-2"/>
    <linearGradient id="linear-gradient-9" x1="100.89" y1="4.43" x2="72.68" y2="17.11" xlink:href="#linear-gradient-2"/>
    <linearGradient id="linear-gradient-10" x1="67.21" y1="11.62" x2="57.05" y2="24.38" xlink:href="#linear-gradient"/>
    <linearGradient id="linear-gradient-11" x1="56.22" y1="24.33" x2="46.94" y2="39.13" xlink:href="#linear-gradient"/>
    <linearGradient id="linear-gradient-12" x1="97.52" y1="1.05" x2="69.3" y2="13.74" xlink:href="#linear-gradient"/>
    <linearGradient id="linear-gradient-13" x1="80.21" y1="15.23" x2="99.34" y2="55.83" gradientUnits="userSpaceOnUse">
      <stop offset="0" stop-color="#d2edf0"/>
      <stop offset="1" stop-color="#99d8f6"/>
    </linearGradient>
  </defs>
  <g>
    <g>
      <path class="cls-13" d="M117.45,22.77l-3.38-3.38c-2.06-2.25-4.85-3.83-7.99-4.35l-5.01,7.73h16.38Z"/>
      <path class="cls-1" d="M120.83,26.14l-3.38-3.38c-2.06-2.25-4.85-3.83-7.99-4.35l-5.01,7.73h16.38Z"/>
      <path class="cls-11" d="M124.2,29.52l-3.38-3.38c-2.06-2.25-4.85-3.83-7.99-4.35l-5.01,7.73h16.38Z"/>
    </g>
    <g>
      <path class="cls-14" d="M65.21,32.47c-.06-.45-.11-.91-.11-1.38,0-5.43,4.41-9.84,9.84-9.84,1.3,0,2.54,.26,3.68,.72l-3.38-3.38c-1.14-.46-2.38-.72-3.68-.72-5.43,0-9.84,4.41-9.84,9.84,0,.47,.04,.93,.11,1.38l3.38,3.38Z"/>
      <path class="cls-8" d="M52.89,39.27c0,2.59,.96,4.96,2.54,6.77l3.07,3.02h0c-1.4-1.76-2.24-3.98-2.24-6.41,0-5.22,3.9-9.53,8.95-10.17l-3.38-3.38c-5.05,.65-8.95,4.95-8.95,10.17Z"/>
      <path class="cls-5" d="M104.34,11c-3.21-2.65-7.32-4.25-11.81-4.25-7.88,0-14.6,4.91-17.29,11.84l3.38,3.38c2.69-6.93,9.41-11.84,17.29-11.84,4.49,0,8.6,1.59,11.81,4.25l-3.38-3.38Z"/>
    </g>
    <g>
      <path class="cls-9" d="M61.84,29.1c-.06-.45-.11-.91-.11-1.38,0-5.43,4.41-9.84,9.84-9.84,1.3,0,2.54,.26,3.68,.72l-3.38-3.38c-1.14-.46-2.38-.72-3.68-.72-5.43,0-9.84,4.41-9.84,9.84,0,.47,.04,.93,.11,1.38l3.38,3.38Z"/>
      <path class="cls-15" d="M49.51,35.89c0,2.59,.96,4.96,2.54,6.77l3.07,3.02h0c-1.4-1.76-2.24-3.98-2.24-6.41,0-5.22,3.9-9.53,8.95-10.17l-3.38-3.38c-5.05,.65-8.95,4.95-8.95,10.17Z"/>
      <path class="cls-10" d="M100.97,7.62c-3.21-2.65-7.32-4.25-11.81-4.25-7.88,0-14.6,4.91-17.29,11.84l3.38,3.38c2.69-6.93,9.41-11.84,17.29-11.84,4.49,0,8.6,1.59,11.81,4.25l-3.38-3.38Z"/>
    </g>
    <g>
      <path class="cls-7" d="M58.46,25.72c-.06-.45-.11-.91-.11-1.38,0-5.43,4.41-9.84,9.84-9.84,1.3,0,2.54,.26,3.68,.72l-3.38-3.38c-1.14-.46-2.38-.72-3.68-.72-5.43,0-9.84,4.41-9.84,9.84,0,.47,.04,.93,.11,1.38l3.38,3.38Z"/>
      <path class="cls-6" d="M46.13,32.52c0,2.59,.96,4.96,2.54,6.77l3.07,3.02h0c-1.4-1.76-2.24-3.98-2.24-6.41,0-5.22,3.9-9.53,8.95-10.17l-3.38-3.38c-5.05,.65-8.95,4.95-8.95,10.17Z"/>
      <path class="cls-16" d="M97.59,4.25c-3.21-2.65-7.32-4.25-11.81-4.25-7.88,0-14.6,4.91-17.29,11.84l3.38,3.38c2.69-6.93,9.41-11.84,17.29-11.84,4.49,0,8.6,1.59,11.81,4.25l-3.38-3.38Z"/>
    </g>
    <path class="cls-17" d="M113.88,52.92c7.72,0,13.98-6.26,13.98-13.98,0-3.63-1.39-6.94-3.66-9.42-2.51-2.75-6.11-4.49-10.12-4.55-.86-4.23-3.16-7.94-6.36-10.6-3.21-2.65-7.32-4.25-11.81-4.25-7.88,0-14.6,4.91-17.29,11.84-1.14-.46-2.38-.72-3.68-.72-5.43,0-9.84,4.41-9.84,9.84,0,.47,.04,.93,.11,1.38-5.05,.65-8.95,4.95-8.95,10.17,0,2.59,.96,4.96,2.54,6.77,1.88,2.15,4.64,3.5,7.72,3.5h47.35Z"/>
  </g>
  <g>
    <path class="cls-2" d="M11.28,62.34c-.12,1.61-.18,3.31-.18,5.1v9.19c0,3.42,.09,5.3,.26,5.65s.79,.52,1.84,.52h1.21v1.02c-1.9-.08-3.52-.11-4.84-.11s-2.94,.04-4.81,.11v-1.02h1.36c.71,0,1.17-.09,1.39-.28,.21-.19,.35-.56,.4-1.1,.11-1.26,.16-2.88,.16-4.87v-9.21c0-1.82-.04-3.48-.11-5h-1.64c-2.65,0-4.11,.06-4.38,.19-.27,.12-.45,.6-.53,1.44l-.23,2.16H.16l.03-1.92c0-.77-.06-1.89-.19-3.34,5.81,.08,9.22,.11,10.24,.11l8.92-.11c-.21,1.82-.32,3.57-.36,5.26h-1.02l-.16-2.11c-.06-.73-.16-1.16-.27-1.3-.12-.13-.38-.22-.79-.25-1.18-.09-2.53-.13-4.03-.13h-1.26Z"/>
    <path class="cls-2" d="M20.33,61.89v-1.02c2.2,.08,3.81,.11,4.81,.11,1.05,0,2.6-.04,4.65-.11v1.02h-1.18c-1.01,0-1.62,.19-1.82,.58-.2,.39-.31,2.14-.31,5.26v6.32c0,2.31,.13,3.92,.38,4.82,.25,.9,.91,1.67,1.96,2.29,1.05,.62,2.46,.94,4.23,.94s3.35-.33,4.6-1c.86-.46,1.49-1.18,1.89-2.15s.6-2.82,.6-5.54v-6.08c0-2.82-.13-4.43-.38-4.83-.25-.4-.95-.6-2.09-.6h-.84v-1.02c2.23,.08,3.65,.11,4.25,.11,.98,0,2.2-.04,3.65-.11v1.02h-1.1c-.85,0-1.4,.23-1.65,.69s-.36,2.06-.36,4.82v6.05c0,2.76-.14,4.63-.41,5.59-.27,.96-.78,1.83-1.5,2.61s-1.69,1.39-2.9,1.84-2.63,.68-4.27,.68-3.17-.2-4.44-.6c-1.27-.4-2.22-.9-2.86-1.49-.64-.59-1.1-1.32-1.39-2.17-.29-.86-.43-2.31-.43-4.36l.03-3.06v-4.92c0-3.03-.09-4.73-.27-5.1-.18-.37-.75-.55-1.7-.55h-1.15Z"/>
    <path class="cls-2" d="M45.02,90.1c.03-.47,.05-.86,.05-1.16l-.05-1.37,.34-.18c.58,.37,1.17,.55,1.77,.55,.86,0,1.46-.29,1.81-.88,.34-.59,.52-2.15,.52-4.7v-13.9c0-3.55-.1-5.53-.31-5.94-.21-.41-.84-.62-1.92-.62h-1.08v-1.02c1.16,.08,2.63,.11,4.42,.11,1.98,0,3.66-.04,5.03-.11v1.02l-1.07,.06c-.88,.08-1.4,.17-1.58,.29-.18,.12-.3,.32-.36,.6s-.1,1.2-.1,2.75v13.89c0,2.3-.15,3.95-.45,4.95-.46,1.59-1.32,2.95-2.57,4.06-1.25,1.12-2.44,1.68-3.58,1.68-.2,0-.49-.03-.87-.08Z"/>
    <path class="cls-2" d="M57.02,61.89v-1.02c2.2,.08,3.81,.11,4.81,.11,1.05,0,2.6-.04,4.65-.11v1.02h-1.18c-1.01,0-1.62,.19-1.82,.58-.2,.39-.31,2.14-.31,5.26v6.32c0,2.31,.13,3.92,.38,4.82,.25,.9,.91,1.67,1.96,2.29,1.05,.62,2.46,.94,4.23,.94s3.35-.33,4.6-1c.86-.46,1.49-1.18,1.89-2.15s.6-2.82,.6-5.54v-6.08c0-2.82-.13-4.43-.38-4.83-.25-.4-.95-.6-2.09-.6h-.84v-1.02c2.23,.08,3.65,.11,4.25,.11,.98,0,2.2-.04,3.65-.11v1.02h-1.1c-.85,0-1.4,.23-1.65,.69s-.36,2.06-.36,4.82v6.05c0,2.76-.14,4.63-.41,5.59-.27,.96-.77,1.83-1.5,2.61-.73,.77-1.69,1.39-2.9,1.84-1.21,.45-2.63,.68-4.27,.68s-3.17-.2-4.44-.6c-1.27-.4-2.22-.9-2.86-1.49-.64-.59-1.1-1.32-1.39-2.17-.29-.86-.43-2.31-.43-4.36l.03-3.06v-4.92c0-3.03-.09-4.73-.27-5.1-.18-.37-.75-.55-1.7-.55h-1.15Z"/>
    <path class="cls-2" d="M105.83,61.96c-.3,1.12-.46,2.6-.48,4.45h-1.11v-1.29c0-.84-.11-1.41-.34-1.71s-.81-.62-1.77-.96c-.95-.34-1.95-.51-3.01-.51-1.72,0-3.07,.44-4.06,1.3-.98,.87-1.48,1.99-1.48,3.35,0,.86,.2,1.6,.6,2.21s.95,1.06,1.63,1.34c.68,.27,2.13,.52,4.35,.72,2.21,.22,3.71,.5,4.49,.86,.78,.36,1.4,.93,1.87,1.71s.7,1.72,.7,2.79c0,2.16-.9,4.02-2.71,5.58-1.81,1.56-4.22,2.34-7.23,2.34-1.03,0-2.07-.11-3.12-.32-1.05-.21-2.1-.52-3.17-.93,.19-1.29,.28-2.95,.27-4.97h1.1v.81c0,1.04,.05,1.69,.16,1.94,.11,.25,.36,.51,.76,.79,.59,.42,1.3,.74,2.11,.96,.82,.22,1.7,.33,2.64,.33,2.03,0,3.6-.48,4.71-1.44,1.11-.96,1.66-2.17,1.66-3.65,0-.86-.19-1.59-.56-2.18-.38-.6-.9-1.04-1.58-1.33-.68-.29-1.93-.51-3.76-.66-2.43-.19-4.08-.48-4.95-.87-.87-.39-1.55-1-2.05-1.83-.5-.83-.74-1.87-.74-3.11,0-2.1,.76-3.81,2.27-5.15,1.52-1.33,3.61-2,6.29-2,1.08,0,2.15,.12,3.24,.35,1.08,.23,2.16,.58,3.25,1.06Z"/>
    <path class="cls-2" d="M115.01,72.86v3.96l.02,2.28c0,1.42,.02,2.46,.05,3.12,1.57,.12,3.26,.18,5.06,.18,1.21,0,2.22-.05,3.04-.16,.53-.06,1.09-.2,1.68-.42,.27-.95,.54-2.13,.82-3.55h1.06c-.29,2.36-.43,3.94-.43,4.72l.03,.73c-1.24,.11-2.45,.16-3.65,.16l-2.53-.05c-2.8-.08-4.85-.11-6.16-.11s-2.93,.04-5.02,.11v-1.02h.5c.94,0,1.52-.09,1.77-.28,.24-.18,.4-.61,.48-1.29,.08-.68,.12-2.17,.12-4.48v-8.86c0-1.45-.04-2.64-.11-3.56-.07-.92-.15-1.48-.23-1.65s-.2-.31-.35-.41c-.15-.1-.61-.18-1.39-.26l-1.24-.13v-1.02h1.74l1.71,.06c.96,.04,1.68,.06,2.18,.06l6.19-.09,2.94-.02c1-.01,2.01,.03,3.03,.11-.41,1.28-.63,2.94-.68,4.98h-1.1c0-1.18-.06-2.17-.18-2.95-1.27-.47-2.83-.71-4.68-.71-1.47,0-3.02,.06-4.63,.19,.01,1.01,0,2.02-.03,3.03l-.03,2.48v3.27c1.06,.08,2.01,.11,2.82,.11,2.56,0,4.01-.09,4.35-.27,.34-.18,.51-.73,.51-1.65v-1.05h1.1c-.08,1.62-.11,2.92-.11,3.89,0,1.02,.04,2.23,.11,3.61h-1.1v-.93c0-1.03-.2-1.66-.6-1.9s-1.83-.35-4.27-.35c-.9,0-1.84,.04-2.81,.11Z"/>
    <path class="cls-2" d="M139.69,62.34c-.12,1.61-.18,3.31-.18,5.1v9.19c0,3.42,.09,5.3,.26,5.65,.17,.35,.78,.52,1.84,.52h1.21v1.02c-1.9-.08-3.52-.11-4.84-.11s-2.94,.04-4.81,.11v-1.02h1.36c.71,0,1.17-.09,1.39-.28,.22-.19,.35-.56,.4-1.1,.11-1.26,.16-2.88,.16-4.87v-9.21c0-1.82-.04-3.48-.11-5h-1.64c-2.65,0-4.11,.06-4.38,.19-.27,.12-.45,.6-.53,1.44l-.22,2.16h-1.02l.03-1.92c0-.77-.06-1.89-.19-3.34,5.81,.08,9.22,.11,10.24,.11l8.92-.11c-.2,1.82-.32,3.57-.35,5.26h-1.02l-.16-2.11c-.06-.73-.16-1.16-.27-1.3s-.38-.22-.79-.25c-1.18-.09-2.53-.13-4.03-.13h-1.26Z"/>
    <path class="cls-2" d="M149.1,82.81h1.02c1,0,1.6-.24,1.8-.73,.2-.48,.3-2.8,.3-6.95v-5.47c0-4.3-.09-6.67-.26-7.11-.17-.44-.69-.66-1.55-.66h-1.31v-1.02c1.79,.08,3.55,.11,5.3,.11,1.45,0,2.77-.04,3.96-.11v1.02h-1.25c-.77,0-1.25,.09-1.44,.27s-.31,.65-.34,1.39c-.05,1.15-.08,3.2-.08,6.15v5.57c0,4.18,.09,6.49,.28,6.91,.18,.43,.77,.64,1.77,.64h1.07v1.02c-1.33-.08-2.77-.11-4.33-.11-1.82,0-3.46,.04-4.93,.11v-1.02Z"/>
    <path class="cls-2" d="M176.17,76.09h-9.33l-1.09,2.6c-.72,1.72-1.08,2.77-1.08,3.16,0,.25,.07,.43,.2,.53,.14,.11,.48,.19,1.02,.26l1.55,.18v1.02c-1.03-.08-2.19-.11-3.48-.11-1.55,0-2.91,.04-4.08,.11v-1.02l.48-.02c.75-.02,1.24-.1,1.46-.23,.22-.13,.45-.46,.7-.99,.76-1.55,1.54-3.22,2.34-5.02l4.44-10.05c1.18-2.67,1.99-4.6,2.42-5.81h1.1l8.16,18.99c.55,1.29,.91,2.07,1.1,2.33,.18,.26,.39,.45,.63,.56,.24,.11,.77,.19,1.6,.23v1.02c-1.4-.08-2.73-.11-4-.11-1.18,0-2.76,.04-4.73,.11v-1.02l1.6-.1c.57-.04,.91-.1,1.02-.18,.16-.12,.24-.27,.24-.45,0-.19-.16-.7-.48-1.52l-1.77-4.48Zm-8.73-1.32h8.13l-4.06-9.69-4.07,9.69Z"/>
  </g>
  <text class="cls-3" transform="translate(129.35 93.66)"><tspan class="cls-4" x="0" y="0">C</tspan><tspan class="cls-12" x="12.67" y="0">l</tspan><tspan class="cls-4" x="22.27" y="0">oud</tspan></text>
</svg>
